Coordinates
version=1
nRows=13
nColumns=36
inDegrees=yes

Units are S.I. units (second, meters, Newtons, ...)
If the header above contains a line with 'inDegrees', this indicates whether rotational values are in degrees (yes) or radians (no).

endheader
time	pelvis_tilt	pelvis_list	pelvis_rotation	pelvis_tx	pelvis_ty	pelvis_tz	hip_flexion_r	hip_adduction_r	hip_rotation_r	knee_angle_r	knee_angle_r_beta	ankle_angle_r	subtalar_angle_r	mtp_angle_r	hip_flexion_l	hip_adduction_l	hip_rotation_l	knee_angle_l	knee_angle_l_beta	ankle_angle_l	subtalar_angle_l	mtp_angle_l	lumbar_extension	lumbar_bending	lumbar_rotation	arm_flex_r	arm_add_r	arm_rot_r	elbow_flex_r	pro_sup_r	arm_flex_l	arm_add_l	arm_rot_l	elbow_flex_l	pro_sup_l
      3.37916670	    -14.63050073	      0.22593507	      2.54728091	     -0.39363974	      1.57474892	     -0.04073047	      2.47823512	     -1.90144664	    -19.51009692	      8.51479651	      0.14861123	    -44.78225888	     -3.53000250	     -7.49999987	      3.76841046	     -5.74127818	    -20.19916148	      6.18062480	      0.10787225	    -35.34825781	     -4.72869988	     -7.49999987	      7.22814853	     -3.98168316	     -6.96686292	     32.67338886	    -54.55370647	    -25.02463989	    120.27103187	     89.49781254	     38.66984959	    -75.76190388	      4.58580056	    127.29275261	     87.85674792
      3.38333330	    -14.73491765	      0.24674855	      2.61773996	     -0.38591723	      1.58205350	     -0.04211292	      2.46619414	     -1.89097949	    -20.75032313	      7.68494994	      0.13412768	    -44.37519176	     -3.27639471	     -7.49999987	      3.94568326	     -5.60870077	    -20.67904178	      5.93400615	      0.10356795	    -33.07390360	     -4.11628179	     -7.49999987	      7.50422477	     -4.07280446	     -6.69957958	     29.67828575	    -55.16310228	    -27.71265783	    120.57009417	     89.29496928	     37.57811897	    -76.05172975	      3.78186831	    127.54837996	     87.59590690
      3.38750000	    -14.70640366	      0.31690287	      2.48897068	     -0.38018116	      1.57975494	     -0.04046210	      2.54489233	     -1.78184006	    -21.44485660	      7.25846267	      0.12668407	    -43.98192731	     -3.09331333	     -7.49999987	      4.02303453	     -5.45769465	    -21.76072837	      5.53079408	      0.09653057	    -31.57381020	     -4.39596830	     -7.49999987	      7.41420806	     -4.24490306	     -6.27096198	     26.62027415	    -55.68914555	    -30.71188786	    121.03248371	     87.96661601	     36.84629720	    -76.46343376	      2.91120586	    128.13585711	     86.29929419
      3.39166670	    -14.64152274	      0.44185668	      2.53332203	     -0.37564888	      1.57874649	     -0.03991770	      2.68564231	     -1.88822640	    -22.47625888	      7.04742104	      0.12300070	    -43.79888743	     -2.96500350	     -7.49999987	      4.25059497	     -5.30431655	    -22.01429494	      5.22780361	      0.09124239	    -30.62158829	     -4.80210660	     -7.49999987	      7.41864045	     -4.50721850	     -6.06541647	     24.77942512	    -55.82041258	    -32.52700569	    120.76277744	     88.34033013	     37.42676435	    -76.99223688	      3.66451828	    128.06393989	     86.73555014
      3.39583330	    -14.73751682	      0.56411702	      2.46449839	     -0.37005894	      1.58213737	     -0.03908274	      3.08268999	     -1.94511542	    -23.31132619	      6.55809236	      0.11446030	    -43.24443204	     -2.53306315	     -7.49999987	      4.42117979	     -4.98074394	    -22.89784071	      4.76983625	      0.08324935	    -30.60850196	     -4.38290964	     -7.49999987	      7.40472747	     -4.69137955	     -5.75556049	     22.68063217	    -55.94114772	    -34.56443719	    120.80407091	     86.88537149	     37.03180012	    -77.30247718	      3.50707492	    128.20518012	     85.27708481
      3.40000000	    -14.74009075	      0.68254454	      2.35473001	     -0.36555048	      1.58039168	     -0.03878541	      3.39462362	     -2.13432482	    -23.90688245	      6.26548373	      0.10935332	    -42.65784521	     -2.67023589	     -7.49999987	      4.56543356	     -4.70702751	    -23.27532119	      4.60986525	      0.08045733	    -30.06390357	     -3.98813052	     -7.49999987	      7.35164069	     -4.82173885	     -5.54523111	     21.56353064	    -55.99138795	    -35.62032767	    120.35959611	     85.62390669	     36.73471518	    -77.67843086	      3.61784551	    128.32202466	     84.16039226
      3.40416670	    -14.70223718	      0.49726598	      2.19638786	     -0.35915642	      1.58215256	     -0.04017970	      3.84002777	     -2.07646853	    -24.45369106	      6.42059055	      0.11206045	    -42.19086097	     -3.18919205	     -7.49999987	      4.60743351	     -4.68229426	    -23.54213021	      4.41684312	      0.07708846	    -29.39032512	     -3.13493678	     -7.49999987	      7.23144688	     -4.42660485	     -4.91925893	     18.69687287	    -56.49755889	    -38.52083161	    120.51878269	     85.45012159	     35.62478451	    -77.17033721	      2.84253941	    128.41858864	     84.18717242
      3.40833330	    -14.69114920	      0.46962199	      2.18013723	     -0.35417209	      1.58412155	     -0.04022880	      4.20594435	     -2.18413606	    -24.82033183	      6.25911094	      0.10924209	    -42.09940668	     -3.28011719	     -7.49999987	      4.80442703	     -4.53046864	    -24.11956069	      4.04885723	      0.07066589	    -29.75915487	     -3.01218527	     -7.49999987	      7.18690134	     -4.26300479	     -4.45521959	     15.91026770	    -56.66332698	    -41.12358694	    120.69324442	     84.80930665	     34.48792949	    -76.75977673	      2.23716273	    128.41055709	     83.93487782
      3.41250000	    -14.79799797	      0.50083988	      2.10073199	     -0.34746349	      1.58698987	     -0.03955360	      4.55161643	     -2.20109679	    -25.41589781	      5.92671855	      0.10344075	    -42.16078607	     -3.25299175	     -7.49999987	      5.25123302	     -4.45398610	    -24.54411407	      3.76675484	      0.06574227	    -28.95948251	     -2.73598798	     -7.49999987	      7.20984582	     -4.21206149	     -3.66153312	     11.83107446	    -56.63504323	    -45.18794285	    121.08869503	     85.65653800	     34.31197787	    -76.15504854	      2.51282093	    128.28451602	     86.02715671
      3.41666670	    -14.91467210	      0.46992596	      2.23425183	     -0.34116876	      1.58952111	     -0.03897573	      4.93296763	     -2.17467197	    -26.27516275	      5.50552074	      0.09608946	    -42.12174330	     -3.02590356	     -7.49999987	      5.56963502	     -4.47275688	    -25.20039636	      3.33989921	      0.05829224	    -28.58738486	     -2.12808940	     -7.49999987	      7.12985239	     -4.21072654	     -3.17393445	      7.73111584	    -56.39104001	    -48.97672201	    121.61328416	     83.87183776	     33.04759456	    -75.89301734	      1.80875895	    128.56632532	     84.18222222
      3.42083330	    -15.04455524	      0.53133420	      2.50581297	     -0.33627861	      1.59189754	     -0.03917141	      5.16064120	     -2.21841094	    -26.95528812	      4.81291238	      0.08400117	    -41.89746493	     -2.55798724	     -7.49999987	      6.04761499	     -4.26085278	    -25.75937009	      2.88933591	      0.05042842	    -29.44504223	     -2.04172302	     -7.49999987	      7.01054274	     -4.37787181	     -2.62301040	      3.07396479	    -55.80750032	    -53.38410300	    122.17755181	     82.79686751	     31.89528429	    -75.48514623	      1.33951882	    128.71853634	     83.31873181
      3.42500000	    -15.07361651	      0.66581393	      2.61796619	     -0.33236590	      1.59346183	     -0.03784671	      5.40682763	     -2.34394284	    -27.98986481	      4.38305435	      0.07649873	    -41.74649236	     -2.42428961	     -7.49999987	      6.38597346	     -4.02956401	    -26.83618195	      2.46073314	      0.04294790	    -31.15185842	     -1.50552391	     -7.49999987	      7.01994819	     -4.70873620	     -2.37631965	      0.95187472	    -54.82343266	    -55.00971662	    121.93600681	     81.23167177	     31.25230187	    -75.46694573	      1.70901029	    128.60557983	     81.86444603
      3.42916670	    -15.13991427	      0.56136472	      2.85927606	     -0.32808511	      1.59222434	     -0.03775776	      5.78546824	     -2.28450954	    -28.38779777	      4.13183209	      0.07211407	    -41.64452010	     -2.59651864	     -7.49999987	      6.90936194	     -4.02911415	    -27.23929942	      2.18249360	      0.03809170	    -32.98290868	     -1.49447516	     -7.49999987	      6.46961941	     -4.89326464	      7.26777617	    -25.56405840	    -50.21587463	    -84.35375472	    125.44529583	     77.31838338	     61.31132854	    -64.23532695	     32.86776151	    121.88921137	     84.92922168
